# xmcd
#
# Track frame offsets:
#	150
#	11341
#	25763
#	39405
#	49842
#	61115
#	76729
#	99211
#	110155
#	135317
#	148252
#	169699
#	192491
#	210184
#	215185
#	231749
#
# Disc length: 3297
#
# Revision: 1
# Processed by: cddbd v1.5.1PL0 Copyright (c) Steve Scherf et al.
# Submitted via: audiograbber 1.82.02
# Normalized: r0:DSETVAR1
#
DISCID=d90cdf10
DTITLE=Various Artist - A Sentimental Blues
DYEAR=2000
DGENRE=Blues
TTITLE0=Ray Charles - A Sentimental Blues
TTITLE1=John Mayall - Why Worry
TTITLE2=Canned Heat - Louise
TTITLE3=Johnny Winter - 38-32-20 Blues
TTITLE4=The James Cotton Blues Band - Good Time Charlie
TTITLE5=Big Joe Turner - How Long Blues
TTITLE6=B.B.King - The Thrill Is Gone
TTITLE7=Elmore Waters - Coming Home
TTITLE8=Howling Wolf - Little Red Rooster
TTITLE9=John Lee Hooker - Baby Lee
TTITLE10=Louis Armstrong - Nobody Knows The Trouble I've Seen
TTITLE11=B.B.King - Everyday I Have The Blues
TTITLE12=Santana - As The Years Go By
TTITLE13=The Mills Brothers - Paper Doll
TTITLE14=The Animals - Don't You Leave Me Baby
TTITLE15=Carl Perkins - 21
EXTD=
EXTT0=
EXTT1=
EXTT2=
EXTT3=
EXTT4=
EXTT5=
EXTT6=
EXTT7=
EXTT8=
EXTT9=
EXTT10=
EXTT11=
EXTT12=
EXTT13=
EXTT14=
EXTT15=
PLAYORDER=
